<svg xmlns="http://www.w3.org/2000/svg" viewBox="0 0 128 128">
  <defs>
    <linearGradient id="grad" x1="0%" y1="0%" x2="100%" y2="100%">
      <stop offset="0%" style="stop-color:#6366f1;stop-opacity:1" />
      <stop offset="100%" style="stop-color:#4f46e5;stop-opacity:1" />
    </linearGradient>
  </defs>

  <!-- Background Circle -->
  <circle cx="64" cy="64" r="60" fill="url(#grad)"/>

  <!-- Cloud Icon -->
  <g fill="#ffffff">
    <!-- Main cloud body -->
    <path d="M96 72c0 8.837-7.163 16-16 16H44c-11.046 0-20-8.954-20-20 0-9.941 7.255-18.182 16.757-19.736C42.264 38.757 51.296 32 62 32c12.15 0 22.166 9.018 23.787 20.728C94.22 54.396 100 61.518 100 70c0 1.105-.134 2.18-.386 3.21A15.89 15.89 0 0 1 96 72z"/>

    <!-- Upload Arrow -->
    <path d="M64 50l-12 12h8v14h8V62h8L64 50z" fill="#6366f1"/>
  </g>

  <!-- AI Text Badge -->
  <rect x="78" y="80" width="28" height="16" rx="4" fill="#22c55e"/>
  <text x="92" y="92" font-family="Arial, sans-serif" font-size="10" font-weight="bold" fill="#ffffff" text-anchor="middle">AI</text>
</svg>
